<?xml version="1.0" encoding="utf-8"?>
<!-- Generator: Adobe Illustrator 27.6.1, SVG Export Plug-In . SVG Version: 6.00 Build 0)  -->
<svg version="1.1" id="Layer_1" xmlns="http://www.w3.org/2000/svg" xmlns:xlink="http://www.w3.org/1999/xlink" x="0px" y="0px"
	 viewBox="0 0 100 100" style="enable-background:new 0 0 100 100;" xml:space="preserve">
<style type="text/css">
	.st0{fill:#97D6F4;}
	.st1{fill:#FFFFFF;}
	.st2{fill:#10B8DA;}
</style>
<g id="Group_11" transform="translate(54 46)">
	<g>
		<path class="st0" d="M32.2,38.4C40.8,29.5,46,17.4,46,4c0-27.6-22.4-50-50-50c-27.6,0-50,22.4-50,50c0,13.4,5.2,25.5,13.8,34.4
			H32.2z"/>
		<path class="st0" d="M-35.4,42.9C-26.8,49.8-15.9,54-4,54c11.9,0,22.8-4.2,31.4-11.1H-35.4z"/>
	</g>
	<path class="st1" d="M42.7,0.5c-0.5-4-2.7-5.9-4.4-6.8c-3.3-1.8-7.6-1.3-11-0.4l3.1-10.4c0-2.5-2-4.4-4.4-4.4h-66.7
		c-2.5,0-4.4,2-4.4,4.4l13.3,44.4c0,2.5,2,4.4,4.4,4.4h40c2.5,0,4.4-2,4.4-4.4l1.6-5.4C26.6,18.9,44.1,10.9,42.7,0.5z M20.8,15.1
		l4.6-15.3c2.9-1.2,7.9-2.5,10.3-1.2c0.5,0.3,1.3,0.9,1.5,2.7C37.8,5.7,29.3,11.2,20.8,15.1z"/>
	<g id="Path_14">
		<path class="st2" d="M-37.9-8.1c-0.2-0.7,10.5,35.6,10.5,35.6h39.9L22.9-8.7c0,0-6,8-19.4,6.3S-15.1-24.7-37.9-8.1z"/>
	</g>
</g>
</svg>
